<?xml version="1.0" encoding="UTF-8" standalone="no"?>
<!DOCTYPE svg PUBLIC "-//W3C//DTD SVG 1.1//EN"
 "http://www.w3.org/Graphics/SVG/1.1/DTD/svg11.dtd">
<!-- Generated by graphviz version 2.43.0 (0)
 -->
<!-- Title: %3 Pages: 1 -->
<svg width="118pt" height="380pt"
 viewBox="0.00 0.00 118.00 380.00" xmlns="http://www.w3.org/2000/svg" xmlns:xlink="http://www.w3.org/1999/xlink">
<g id="graph0" class="graph" transform="scale(1 1) rotate(0) translate(4 376)">
<title>%3</title>
<polygon fill="white" stroke="transparent" points="-4,4 -4,-376 114,-376 114,4 -4,4"/>
<!-- (below main) -->
<g id="node1" class="node">
<title>(below main)</title>
<polygon fill="#ff0100" stroke="#ff0100" points="91,-166 19,-166 19,-103 91,-103 91,-166"/>
<text text-anchor="middle" x="55" y="-154" font-family="Arial" font-size="10.00" fill="#ffffff">libc&#45;2.31.so</text>
<text text-anchor="middle" x="55" y="-143" font-family="Arial" font-size="10.00" fill="#ffffff">(below main)</text>
<text text-anchor="middle" x="55" y="-132" font-family="Arial" font-size="10.00" fill="#ffffff">99.94%</text>
<text text-anchor="middle" x="55" y="-121" font-family="Arial" font-size="10.00" fill="#ffffff">(0.00%)</text>
<text text-anchor="middle" x="55" y="-110" font-family="Arial" font-size="10.00" fill="#ffffff">1×</text>
</g>
<!-- main -->
<g id="node2" class="node">
<title>main</title>
<polygon fill="#ff0100" stroke="#ff0100" points="83,-63 27,-63 27,0 83,0 83,-63"/>
<text text-anchor="middle" x="55" y="-51" font-family="Arial" font-size="10.00" fill="#ffffff">teste</text>
<text text-anchor="middle" x="55" y="-40" font-family="Arial" font-size="10.00" fill="#ffffff">main</text>
<text text-anchor="middle" x="55" y="-29" font-family="Arial" font-size="10.00" fill="#ffffff">99.94%</text>
<text text-anchor="middle" x="55" y="-18" font-family="Arial" font-size="10.00" fill="#ffffff">(99.94%)</text>
<text text-anchor="middle" x="55" y="-7" font-family="Arial" font-size="10.00" fill="#ffffff">1×</text>
</g>
<!-- (below main)&#45;&gt;main -->
<g id="edge1" class="edge">
<title>(below main)&#45;&gt;main</title>
<path fill="none" stroke="#ff0100" stroke-width="4" d="M55,-102.92C55,-93.61 55,-83.23 55,-73.36"/>
<polygon fill="#ff0100" stroke="#ff0100" stroke-width="4" points="58.5,-73.32 55,-63.32 51.5,-73.32 58.5,-73.32"/>
<text text-anchor="middle" x="72" y="-86" font-family="Arial" font-size="10.00" fill="#ff0100">99.94%</text>
<text text-anchor="middle" x="72" y="-75" font-family="Arial" font-size="10.00" fill="#ff0100">1×</text>
</g>
<!-- 0x0000000000001100 -->
<g id="node3" class="node">
<title>0x0000000000001100</title>
<polygon fill="#ff0000" stroke="#ff0000" points="110,-372 0,-372 0,-309 110,-309 110,-372"/>
<text text-anchor="middle" x="55" y="-360" font-family="Arial" font-size="10.00" fill="#ffffff">ld&#45;2.31.so</text>
<text text-anchor="middle" x="55" y="-349" font-family="Arial" font-size="10.00" fill="#ffffff">0x0000000000001100</text>
<text text-anchor="middle" x="55" y="-338" font-family="Arial" font-size="10.00" fill="#ffffff">100.00%</text>
<text text-anchor="middle" x="55" y="-327" font-family="Arial" font-size="10.00" fill="#ffffff">(0.00%)</text>
<text text-anchor="middle" x="55" y="-316" font-family="Arial" font-size="10.00" fill="#ffffff">0×</text>
</g>
<!-- _start -->
<g id="node4" class="node">
<title>_start</title>
<polygon fill="#ff0100" stroke="#ff0100" points="80,-269 30,-269 30,-206 80,-206 80,-269"/>
<text text-anchor="middle" x="55" y="-257" font-family="Arial" font-size="10.00" fill="#ffffff">teste</text>
<text text-anchor="middle" x="55" y="-246" font-family="Arial" font-size="10.00" fill="#ffffff">_start</text>
<text text-anchor="middle" x="55" y="-235" font-family="Arial" font-size="10.00" fill="#ffffff">99.94%</text>
<text text-anchor="middle" x="55" y="-224" font-family="Arial" font-size="10.00" fill="#ffffff">(0.00%)</text>
<text text-anchor="middle" x="55" y="-213" font-family="Arial" font-size="10.00" fill="#ffffff">1×</text>
</g>
<!-- 0x0000000000001100&#45;&gt;_start -->
<g id="edge2" class="edge">
<title>0x0000000000001100&#45;&gt;_start</title>
<path fill="none" stroke="#ff0100" stroke-width="4" d="M55,-308.92C55,-299.61 55,-289.23 55,-279.36"/>
<polygon fill="#ff0100" stroke="#ff0100" stroke-width="4" points="58.5,-279.32 55,-269.32 51.5,-279.32 58.5,-279.32"/>
<text text-anchor="middle" x="72" y="-292" font-family="Arial" font-size="10.00" fill="#ff0100">99.94%</text>
<text text-anchor="middle" x="72" y="-281" font-family="Arial" font-size="10.00" fill="#ff0100">1×</text>
</g>
<!-- _start&#45;&gt;(below main) -->
<g id="edge3" class="edge">
<title>_start&#45;&gt;(below main)</title>
<path fill="none" stroke="#ff0100" stroke-width="4" d="M55,-205.92C55,-196.61 55,-186.23 55,-176.36"/>
<polygon fill="#ff0100" stroke="#ff0100" stroke-width="4" points="58.5,-176.32 55,-166.32 51.5,-176.32 58.5,-176.32"/>
<text text-anchor="middle" x="72" y="-189" font-family="Arial" font-size="10.00" fill="#ff0100">99.94%</text>
<text text-anchor="middle" x="72" y="-178" font-family="Arial" font-size="10.00" fill="#ff0100">1×</text>
</g>
</g>
</svg>
